<svg viewBox="0 0 512 512" xmlns="http://www.w3.org/2000/svg">
  <!-- Paper shadow -->
  <rect x="138" y="100" width="236" height="260" rx="14" fill="#3730A3" opacity="0.25"/>
  <!-- Paper -->
  <rect x="130" y="92" width="236" height="260" rx="14" fill="#FFFFFF"/>
  <!-- Folded corner -->
  <path d="M 338 92 L 366 120 L 366 92 Z" fill="#E2E8F0"/>
  <path d="M 338 92 L 366 120 L 338 120 Z" fill="#CBD5E1"/>
  <!-- Text lines -->
  <rect x="166" y="138" width="110" height="10" rx="5" fill="#CBD5E1"/>
  <rect x="166" y="162" width="150" height="10" rx="5" fill="#E2E8F0"/>
  <rect x="166" y="186" width="130" height="10" rx="5" fill="#E2E8F0"/>
  <rect x="166" y="210" width="100" height="10" rx="5" fill="#E2E8F0"/>
  <rect x="166" y="234" width="140" height="10" rx="5" fill="#E2E8F0"/>
  <!-- App name: AI错题本 -->
  <text x="256" y="435" text-anchor="middle" font-family="PingFang SC,Microsoft YaHei,Noto Sans SC,sans-serif" font-weight="bold" font-size="48" letter-spacing="3" fill="#FFFFFF">AI错题本</text>
  <!-- Paper clip - metallic style -->
  <g fill="none" stroke-linecap="round">
    <path d="M 340 30 L 340 280 C 340 310 320 328 296 328 C 272 328 252 310 252 280 L 252 80 C 252 58 270 42 290 42 C 310 42 326 58 326 80 L 326 245" stroke="#A5B4FC" stroke-width="10" opacity="0.5"/>
    <path d="M 340 30 L 340 280 C 340 310 320 328 296 328 C 272 328 252 310 252 280 L 252 80 C 252 58 270 42 290 42 C 310 42 326 58 326 80 L 326 245" stroke="#C7D2FE" stroke-width="6"/>
  </g>
</svg>
